<svg xmlns="http://www.w3.org/2000/svg" xmlns:xlink="http://www.w3.org/1999/xlink" width="500" zoomAndPan="magnify" viewBox="0 0 375 374.999991" height="500" preserveAspectRatio="xMidYMid meet" version="1.0"><defs><clipPath id="874f18943c"><path d="M 8.980469 8.980469 L 365.980469 8.980469 L 365.980469 365.980469 L 8.980469 365.980469 Z M 8.980469 8.980469 " clip-rule="nonzero"/></clipPath></defs><g clip-path="url(#874f18943c)"><path fill="#ffffff" d="M 187.496094 8.980469 C 88.886719 8.980469 8.980469 88.886719 8.980469 187.496094 C 8.980469 286.105469 88.886719 366.015625 187.496094 366.015625 C 286.105469 366.015625 366.015625 286.105469 366.015625 187.496094 C 365.859375 88.886719 285.953125 8.980469 187.496094 8.980469 Z M 283.632812 118.5625 L 248.855469 281.625 C 247.15625 289.816406 237.574219 293.371094 230.929688 288.425781 L 148.394531 226.910156 L 239.582031 144.527344 C 239.582031 144.527344 245.765625 139.429688 244.066406 137.882812 C 242.210938 136.027344 235.410156 140.046875 232.011719 142.363281 C 228.457031 144.992188 120.261719 213.308594 120.261719 213.308594 L 65.394531 196.304688 C 59.210938 194.453125 59.210938 185.949219 68.175781 182.242188 L 269.722656 104.652344 C 278.53125 100.324219 285.488281 110.214844 283.632812 118.5625 Z M 283.632812 118.5625 " fill-opacity="1" fill-rule="nonzero"/></g></svg>